<svg width="355" height="355" viewBox="0 0 355 355" fill="none" xmlns="http://www.w3.org/2000/svg">
<circle cx="177" cy="177" r="68" fill="#D1D1D1"/>
<path fill-rule="evenodd" clip-rule="evenodd" d="M354.148 195C345.359 284.816 269.625 355 177.5 355C85.3746 355 9.64143 284.816 0.851761 195H74.4589C82.7849 244.383 125.749 282 177.5 282C229.251 282 272.215 244.383 280.541 195H354.148ZM354.048 159C344.796 69.6633 269.283 0 177.5 0C85.7168 0 10.2043 69.6633 0.952484 159H74.6325C83.3662 110.111 126.099 73 177.5 73C228.901 73 271.634 110.111 280.368 159H354.048Z" fill="#D1D1D1"/>
</svg>
