<svg width="354" height="355" viewBox="0 0 354 355" fill="none" xmlns="http://www.w3.org/2000/svg">
<path d="M176.615 235.741C148.711 235.741 125.434 215.888 119.908 189.509H27.076C33.6377 266.215 97.6669 326.4 175.648 326.4C253.63 326.4 317.728 266.215 324.221 189.509H233.323C227.797 215.957 204.52 235.741 176.615 235.741Z" fill="white"/>
<path d="M209.77 322.513C271.658 307.935 318.695 254.692 324.221 189.509H287.613C283.952 248.653 253.077 298.772 209.77 322.513Z" fill="#DFDFDF"/>
<path d="M210.806 177.5C210.737 177.5 210.737 177.5 210.806 177.5C210.737 173.266 209.977 169.239 208.595 165.491C203.76 152.44 191.259 143.208 176.615 143.208C161.972 143.208 149.47 152.51 144.635 165.491C143.254 169.239 142.494 173.266 142.494 177.5H142.563C142.563 181.734 143.323 185.761 144.704 189.509C149.539 202.56 162.041 211.792 176.685 211.792C191.328 211.792 203.83 202.49 208.665 189.509C210.046 185.83 210.806 181.734 210.806 177.5Z" fill="white"/>
<path d="M176.685 119.328C204.589 119.328 227.866 139.182 233.392 165.56H326.224C319.662 88.7847 255.633 28.5999 177.582 28.5999C99.5318 28.5999 35.5718 88.7847 29.01 165.491H119.977C125.503 139.112 148.78 119.328 176.685 119.328Z" fill="#636363"/>
<path d="M287.613 165.491H326.155C320.491 99.1973 271.865 45.1906 208.388 31.7931C252.456 55.1867 283.883 105.792 287.613 165.491Z" fill="#D0D0D0"/>
<path d="M177.582 28.5999C255.633 28.5999 319.662 88.7847 326.155 165.491H233.323C227.797 139.112 204.52 119.259 176.615 119.259C148.711 119.259 125.434 139.112 119.908 165.491H29.01C35.5717 88.7847 99.6009 28.5999 177.582 28.5999ZM208.595 165.491C209.977 169.239 210.737 173.266 210.737 177.5H210.806C210.806 181.734 210.046 185.761 208.665 189.509C203.83 202.56 191.328 211.792 176.685 211.792C162.041 211.792 149.539 202.49 144.704 189.509C143.323 185.761 142.563 181.734 142.563 177.5H142.494C142.494 173.266 143.254 169.239 144.635 165.491C149.47 152.44 161.972 143.208 176.615 143.208C191.259 143.208 203.76 152.51 208.595 165.491ZM175.648 326.469C97.5978 326.469 33.5687 266.285 27.076 189.579H119.908C125.434 215.957 148.711 235.811 176.615 235.811C204.52 235.811 227.797 215.957 233.323 189.579H324.29C317.728 266.215 253.699 326.469 175.648 326.469ZM176.615 0C79.0867 0 0 79.4828 0 177.5C0 275.517 79.0867 355 176.615 355C274.144 355 353.3 275.587 353.3 177.5C353.3 79.4134 274.213 0 176.615 0Z" fill="black"/>
</svg>
